<svg width="120" height="40" viewBox="0 0 120 40" fill="none" xmlns="http://www.w3.org/2000/svg">
<g clip-path="url(#clip0)">
<path d="M110.1 0H7.5C6.8 0 6.2 0.1 5.5 0.2C4.9 0.3 4.2 0.5 3.6 0.8C3 1.1 2.5 1.5 2 2C1.5 2.5 1.1 3 0.8 3.6C0.5 4.2 0.3 4.9 0.2 5.5C0.1 6.2 0 6.9 0 7.5V32.4C0 33.1 0.1 33.7 0.2 34.4C0.3 35.1 0.5 35.7 0.8 36.3C1.1 37 1.5 37.5 2 38C2.5 38.5 3 38.9 3.6 39.2C4.2 39.5 4.8 39.7 5.5 39.8C6.2 39.9 6.8 40 7.5 40H112.1C112.8 40 113.4 39.9 114.1 39.8C114.8 39.7 115.4 39.5 116 39.2C116.6 38.9 117.1 38.5 117.6 38C118.1 37.5 118.5 37 118.8 36.4C119.1 35.8 119.3 35.2 119.4 34.5C119.5 33.8 119.6 33.2 119.6 32.5V7.5C119.6 6.8 119.5 6.2 119.4 5.5C119.3 4.8 119.1 4.2 118.8 3.6C118.2 2.4 117.2 1.4 116 0.8C115.4 0.5 114.8 0.3 114.1 0.2C113.4 0.1 112.8 0 112.1 0H110.1V0Z" fill="#A6A6A6"/>
<path d="M8.40005 39.0999H7.50005C6.90005 39.0999 6.20005 38.9999 5.60005 38.8999C5.00005 38.7999 4.50005 38.5999 3.90005 38.3999C3.40005 38.0999 2.90005 37.7999 2.50005 37.3999C2.10005 36.9999 1.70005 36.4999 1.50005 35.9999C1.20005 35.4999 1.10005 34.8999 1.00005 34.2999C0.900049 33.6999 0.800049 33.0999 0.800049 32.3999V7.4999C0.800049 6.8999 0.900049 6.1999 1.00005 5.5999C1.10005 5.0999 1.30005 4.4999 1.60005 3.9999C1.90005 3.4999 2.20005 2.9999 2.60005 2.5999C3.00005 2.1999 3.50005 1.8999 4.00005 1.5999C4.50005 1.2999 5.10005 1.1999 5.70005 1.0999C6.30005 0.999902 6.90005 0.899902 7.60005 0.899902H112.2C112.8 0.899902 113.4 0.999902 114.1 1.0999C114.7 1.1999 115.2 1.3999 115.8 1.5999C116.8 2.0999 117.7 2.9999 118.2 3.9999C118.5 4.4999 118.6 5.0999 118.7 5.5999C118.8 6.1999 118.9 6.8999 118.9 7.4999V32.3999C118.9 32.9999 118.8 33.5999 118.7 34.2999C118.6 34.8999 118.4 35.3999 118.2 35.9999C117.9 36.4999 117.6 36.9999 117.2 37.3999C116.8 37.7999 116.3 38.1999 115.8 38.3999C115.3 38.6999 114.7 38.8999 114.1 38.8999C113.5 38.9999 112.9 39.0999 112.2 39.0999H8.40005Z" fill="black"/>
<path d="M24.8001 20.2999C24.8001 18.5999 25.7001 16.9999 27.2001 16.0999C26.3001 14.7999 24.8001 13.9999 23.2001 13.8999C21.5001 13.6999 19.9001 14.8999 19.0001 14.8999C18.1001 14.8999 16.8001 13.8999 15.4001 13.8999C13.5001 13.9999 11.8001 14.9999 10.9001 16.5999C9.00008 19.8999 10.4001 24.8999 12.3001 27.5999C13.2001 28.8999 14.3001 30.3999 15.7001 30.3999C17.1001 30.2999 17.6001 29.4999 19.3001 29.4999C21.0001 29.4999 21.4001 30.3999 22.9001 30.3999C24.4001 30.3999 25.3001 29.0999 26.2001 27.6999C26.9001 26.7999 27.4001 25.6999 27.7001 24.5999C25.9001 23.9999 24.8001 22.1999 24.8001 20.2999ZM22.0001 12.1999C22.8001 11.1999 23.2001 9.9999 23.1001 8.6999C21.9001 8.7999 20.7001 9.3999 19.9001 10.3999C19.1001 11.2999 18.7001 12.4999 18.8001 13.7999C20.1001 13.7999 21.2001 13.1999 22.0001 12.1999ZM42.3001 27.0999H37.6001L36.5001 30.4999H34.5001L39.0001 18.0999H41.0001L45.5001 30.4999H43.5001L42.3001 27.0999ZM38.1001 25.5999H41.9001L40.0001 20.0999H39.9001L38.1001 25.5999ZM55.2001 25.9999C55.2001 28.7999 53.7001 30.5999 51.4001 30.5999C50.2001 30.6999 49.1001 29.9999 48.6001 28.9999V33.4999H46.7001V21.4999H48.5001V22.9999C49.1001 21.9999 50.2001 21.3999 51.4001 21.3999C53.6001 21.2999 55.2001 23.1999 55.2001 25.9999ZM53.2001 25.9999C53.2001 24.1999 52.3001 22.9999 50.8001 22.9999C49.4001 22.9999 48.4001 24.1999 48.4001 25.9999C48.4001 27.7999 49.4001 28.9999 50.8001 28.9999C52.3001 28.9999 53.2001 27.7999 53.2001 25.9999ZM65.1001 25.9999C65.1001 28.7999 63.6001 30.5999 61.3001 30.5999C60.1001 30.6999 59.0001 29.9999 58.5001 28.9999V33.4999H56.6001V21.4999H58.4001V22.9999C59.0001 21.9999 60.1001 21.3999 61.3001 21.3999C63.6001 21.2999 65.1001 23.1999 65.1001 25.9999ZM63.2001 25.9999C63.2001 24.1999 62.3001 22.9999 60.8001 22.9999C59.4001 22.9999 58.4001 24.1999 58.4001 25.9999C58.4001 27.7999 59.4001 28.9999 60.8001 28.9999C62.3001 28.9999 63.2001 27.7999 63.2001 25.9999ZM71.7001 26.9999C71.8001 28.1999 73.0001 28.9999 74.7001 28.9999C76.3001 28.9999 77.4001 28.1999 77.4001 27.0999C77.4001 26.0999 76.7001 25.5999 75.1001 25.1999L73.5001 24.7999C71.2001 24.2999 70.2001 23.1999 70.2001 21.4999C70.2001 19.3999 72.1001 17.8999 74.7001 17.8999C77.3001 17.8999 79.1001 19.3999 79.2001 21.4999H77.3001C77.2001 20.2999 76.2001 19.4999 74.7001 19.4999C73.2001 19.4999 72.2001 20.2999 72.2001 21.3999C72.2001 22.2999 72.9001 22.7999 74.5001 23.1999L75.9001 23.4999C78.4001 24.0999 79.5001 25.0999 79.5001 26.8999C79.5001 29.1999 77.7001 30.6999 74.7001 30.6999C71.9001 30.6999 70.1001 29.2999 70.0001 26.9999H71.7001ZM83.3001 19.2999V21.3999H85.0001V22.8999H83.3001V27.8999C83.3001 28.6999 83.6001 28.9999 84.4001 28.9999H85.0001V30.4999C84.7001 30.5999 84.3001 30.5999 84.0001 30.5999C82.2001 30.5999 81.5001 29.8999 81.5001 28.1999V22.9999H80.2001V21.4999H81.5001V19.3999H83.3001V19.2999ZM86.1001 25.9999C86.1001 23.1999 87.8001 21.3999 90.4001 21.3999C93.0001 21.3999 94.7001 23.1999 94.7001 25.9999C94.7001 28.8999 93.0001 30.5999 90.4001 30.5999C87.7001 30.5999 86.1001 28.7999 86.1001 25.9999ZM92.8001 25.9999C92.8001 23.9999 91.9001 22.8999 90.4001 22.8999C88.9001 22.8999 88.0001 23.9999 88.0001 25.9999C88.0001 27.9999 88.9001 29.0999 90.4001 29.0999C91.9001 29.0999 92.8001 27.8999 92.8001 25.9999ZM96.2001 21.3999H98.0001V22.9999C98.2001 21.9999 99.2001 21.2999 100.2 21.3999C100.4 21.3999 100.6 21.3999 100.8 21.4999V23.1999C100.5 23.0999 100.2 23.0999 100 23.0999C99.0001 23.0999 98.1001 23.8999 98.1001 24.8999V30.5999H96.2001V21.3999ZM109.4 27.7999C109.2 29.3999 107.6 30.5999 105.5 30.5999C102.9 30.5999 101.2 28.7999 101.2 25.9999C101.2 23.1999 102.8 21.2999 105.4 21.2999C107.9 21.2999 109.5 22.9999 109.5 25.7999V26.3999H103.1V26.4999C103 27.7999 103.9 28.8999 105.2 29.0999H105.5C106.4 29.1999 107.3 28.6999 107.6 27.7999H109.4ZM103.1 25.0999H107.6C107.7 23.8999 106.7 22.8999 105.5 22.7999H105.3C104.1 22.7999 103.1 23.7999 103.1 25.0999ZM37.8001 8.6999C39.3001 8.5999 40.5001 9.6999 40.6001 11.0999V11.5999C40.6001 13.4999 39.6001 14.5999 37.8001 14.5999H35.6001V8.5999L37.8001 8.6999ZM36.6001 13.8999H37.7001C38.7001 13.9999 39.6001 13.1999 39.7001 12.0999V11.6999C39.8001 10.6999 39.1001 9.6999 38.1001 9.5999H36.6001V13.8999ZM41.7001 12.3999C41.6001 11.1999 42.5001 10.1999 43.6001 10.0999C44.8001 9.9999 45.8001 10.8999 45.9001 11.9999V12.3999C46.0001 13.5999 45.2001 14.5999 44.0001 14.6999C42.8001 14.7999 41.8001 13.9999 41.7001 12.7999V12.3999ZM45.0001 12.3999C45.0001 11.3999 44.6001 10.8999 43.8001 10.8999C43.0001 10.8999 42.6001 11.4999 42.6001 12.3999C42.6001 13.3999 43.0001 13.9999 43.8001 13.9999C44.6001 13.9999 45.0001 13.3999 45.0001 12.3999ZM51.6001 14.6999H50.7001L49.8001 11.3999H49.7001L48.8001 14.6999H47.9001L46.7001 10.1999H47.6001L48.4001 13.5999H48.5001L49.4001 10.1999H50.3001L51.2001 13.5999H51.3001L52.1001 10.1999H53.0001L51.6001 14.6999ZM53.9001 10.1999H54.8001V10.8999H54.9001C55.1001 10.3999 55.7001 10.0999 56.2001 10.0999C57.0001 9.9999 57.7001 10.5999 57.8001 11.4999V14.6999H56.9001V11.9999C56.9001 11.2999 56.6001 10.8999 55.9001 10.8999C55.3001 10.8999 54.8001 11.2999 54.8001 11.8999V14.6999H53.9001V10.1999ZM59.1001 8.3999H60.0001V14.6999H59.1001V8.3999ZM61.2001 12.3999C61.1001 11.1999 61.9001 10.1999 63.1001 10.0999C64.3001 9.9999 65.3001 10.7999 65.4001 11.9999V12.3999C65.5001 13.5999 64.7001 14.5999 63.5001 14.6999C62.3001 14.7999 61.3001 13.9999 61.2001 12.7999V12.3999ZM64.6001 12.3999C64.6001 11.3999 64.2001 10.8999 63.4001 10.8999C62.6001 10.8999 62.2001 11.4999 62.2001 12.3999C62.2001 13.3999 62.6001 13.9999 63.4001 13.9999C64.1001 13.9999 64.6001 13.3999 64.6001 12.3999ZM66.4001 13.3999C66.4001 12.5999 67.0001 12.0999 68.1001 12.0999L69.3001 11.9999V11.5999C69.3001 11.0999 69.0001 10.8999 68.4001 10.8999C67.9001 10.8999 67.6001 11.0999 67.5001 11.3999H66.6001C66.7001 10.5999 67.4001 10.0999 68.4001 10.0999C69.5001 10.0999 70.2001 10.6999 70.2001 11.5999V14.6999H69.3001V14.0999H69.2001C68.9001 14.5999 68.4001 14.7999 67.8001 14.7999C67.1001 14.8999 66.4001 14.2999 66.3001 13.5999C66.4001 13.4999 66.4001 13.4999 66.4001 13.3999ZM69.3001 12.9999V12.5999L68.2001 12.6999C67.6001 12.6999 67.3001 12.9999 67.3001 13.2999C67.3001 13.6999 67.7001 13.8999 68.1001 13.8999C68.7001 14.0999 69.2001 13.6999 69.3001 12.9999C69.3001 13.0999 69.3001 13.0999 69.3001 12.9999ZM71.3001 12.3999C71.3001 10.9999 72.0001 10.0999 73.2001 10.0999C73.8001 10.0999 74.3001 10.3999 74.6001 10.8999H74.7001V8.3999H75.6001V14.6999H74.7001V13.9999H74.6001C74.3001 14.4999 73.8001 14.7999 73.2001 14.7999C72.1001 14.7999 71.3001 13.8999 71.3001 12.3999ZM72.3001 12.3999C72.3001 13.3999 72.7001 13.8999 73.5001 13.8999C74.3001 13.8999 74.7001 13.2999 74.7001 12.3999C74.7001 11.4999 74.2001 10.8999 73.5001 10.8999C72.7001 10.8999 72.3001 11.4999 72.3001 12.3999ZM79.2001 12.3999C79.1001 11.1999 79.9001 10.1999 81.1001 10.0999C82.3001 9.9999 83.3001 10.7999 83.4001 11.9999V12.3999C83.5001 13.5999 82.7001 14.5999 81.5001 14.6999C80.3001 14.7999 79.3001 13.9999 79.2001 12.7999V12.3999ZM82.6001 12.3999C82.6001 11.3999 82.2001 10.8999 81.4001 10.8999C80.6001 10.8999 80.2001 11.4999 80.2001 12.3999C80.2001 13.3999 80.6001 13.9999 81.4001 13.9999C82.1001 13.9999 82.6001 13.3999 82.6001 12.3999ZM84.7001 10.1999H85.6001V10.8999H85.7001C85.9001 10.3999 86.5001 10.0999 87.0001 10.0999C87.8001 9.9999 88.5001 10.5999 88.6001 11.4999V14.6999H87.7001V11.9999C87.7001 11.2999 87.4001 10.8999 86.7001 10.8999C86.1001 10.8999 85.6001 11.2999 85.6001 11.8999V14.6999H84.7001V10.1999ZM93.5001 9.0999V10.1999H94.5001V10.9999H93.5001V13.2999C93.5001 13.7999 93.7001 13.9999 94.1001 13.9999H94.4001V14.6999H93.9001C92.9001 14.6999 92.5001 14.3999 92.5001 13.4999V10.9999H91.8001V10.2999H92.5001V9.0999H93.5001ZM95.7001 8.3999H96.6001V10.8999H96.7001C96.9001 10.3999 97.5001 9.9999 98.1001 10.0999C98.9001 10.0999 99.6001 10.6999 99.7001 11.4999V14.6999H98.8001V11.9999C98.8001 11.2999 98.5001 10.8999 97.8001 10.8999C97.2001 10.8999 96.7001 11.2999 96.7001 11.8999V14.6999H95.8001V8.3999H95.7001ZM104.8 13.4999C104.6 14.2999 103.7 14.8999 102.9 14.7999C101.8 14.7999 100.8 13.8999 100.8 12.7999V12.4999C100.6 11.3999 101.4 10.2999 102.6 10.1999H102.9C104.2 10.1999 104.9 11.0999 104.9 12.4999V12.7999H101.7V12.8999C101.6 13.5999 102.1 14.0999 102.8 14.1999H102.9C103.3 14.2999 103.8 13.9999 104 13.6999H104.8V13.4999ZM101.6 11.9999H103.9C103.9 11.3999 103.5 10.8999 102.9 10.7999H102.8C102.2 10.8999 101.6 11.3999 101.6 11.9999Z" fill="white"/>
</g>
<defs>
<clipPath id="clip0">
<rect width="119.7" height="40" fill="white"/>
</clipPath>
</defs>
</svg>
