<svg width="281" height="24" viewBox="0 0 281 24" fill="none"
  xmlns="http://www.w3.org/2000/svg">
  <g clip-path="url(#clip0)">
    <path d="M63.8624 0.839485H70.3929L73.7096 13.6429H73.8024L76.8616 0.839485H83.2942L86.2865 13.612H86.3792L89.6959 0.839485H96.2212L89.1345 23.691H83.5723L80.1938 9.78541H80.1268L76.5577 23.691H70.9955L63.8624 0.839485ZM96.0101 17.1502V7.91588H101.732V15.7648C101.732 18.0206 102.345 18.9528 103.792 18.9528C105.013 18.9528 105.95 17.9845 105.95 15.8318V7.91588H111.708V23.691H105.95V22.0069L105.883 21.976C105.368 22.6217 104.712 23.1402 103.964 23.4913C103.216 23.8423 102.398 24.0163 101.572 24C98.3689 24 96.0101 22.2644 96.0101 17.1502ZM114.159 7.91588H119.917V9.5897H120C120.545 8.9492 121.225 8.43803 121.992 8.09329C122.759 7.74854 123.593 7.57886 124.434 7.59657C127.622 7.59657 130.032 9.04378 130.032 14.1579V23.691H124.259V15.5433C124.259 13.2927 123.615 12.6798 122.199 12.6798C120.783 12.6798 119.917 13.612 119.917 15.77V23.691H114.159V7.91588ZM143.371 0V9.46094L143.305 9.497C142.782 8.89356 142.135 8.41101 141.407 8.08284C140.68 7.75467 139.89 7.58874 139.092 7.59657C135.136 7.59657 132.113 10.9442 132.113 15.8009C132.113 20.6575 135.1 24 139.447 24C141.244 24 142.63 23.4232 143.593 22.2335H143.66V23.691H149.124V0H143.371ZM140.698 18.9785C139.092 18.9785 137.902 17.7219 137.902 15.7957C137.902 13.8695 139.092 12.6438 140.698 12.6438C142.305 12.6438 143.593 13.9262 143.593 15.7957C143.593 17.6652 142.372 18.9837 140.698 18.9837V18.9785ZM167.382 15.6721C167.382 10.9442 164.003 7.59657 159.471 7.59657C154.707 7.59657 151.298 11.0369 151.298 15.8009C151.298 20.6575 154.836 24 159.538 24C163.174 24 165.523 22.8412 166.841 21.2343L163.751 17.8249C163.309 18.3309 162.765 18.7386 162.156 19.0216C161.547 19.3045 160.884 19.4566 160.213 19.4678C158.472 19.4678 157.153 18.7262 156.896 17.212H167.227C167.312 16.7026 167.364 16.1882 167.382 15.6721ZM156.927 14.0961C157.005 13.4928 157.305 12.9404 157.769 12.5469C158.233 12.1535 158.827 11.9474 159.435 11.9691C160.692 11.9691 161.562 12.7416 161.82 14.0961H156.927ZM169.571 7.91588H175.329V10.0429H175.395C175.864 9.30972 176.505 8.70303 177.263 8.27639C178.021 7.84974 178.873 7.61627 179.742 7.59657H179.773V13.7408C179.294 13.7099 178.81 13.7099 178.553 13.7099C176.333 13.7099 175.303 14.9614 175.303 16.8V23.691H169.545L169.571 7.91588ZM182.961 20.3279L185.408 17.3356C186.106 18.2302 186.992 18.9614 188.002 19.4782C189.013 19.995 190.124 20.285 191.258 20.3279C193.771 20.3279 195.054 19.236 195.054 17.5622C195.054 15.5691 193.545 14.9253 190.65 13.8953C187.174 12.6747 183.734 11.1296 183.734 6.94764C183.734 3.37854 187.014 0.576824 190.97 0.576824C193.737 0.613299 196.407 1.60281 198.53 3.37854L196.213 6.43262C194.348 4.88755 192.515 4.08412 190.97 4.08412C189.203 4.08412 187.787 5.05236 187.756 6.75708C187.725 8.4618 189.265 9.00772 192.031 10.0687C195.955 11.6137 199.107 12.6747 199.107 17.0781C199.107 21.8112 194.894 23.933 191.227 23.933C189.671 23.9342 188.131 23.6147 186.703 22.9944C185.276 22.3742 183.991 21.4665 182.93 20.3279H182.961ZM201.95 0H205.555V9.93991H205.586C206.272 9.21947 207.102 8.65206 208.023 8.27485C208.943 7.89764 209.933 7.71915 210.927 7.75107C214.367 7.75107 216.783 9.58455 216.783 14.2815V23.691H213.177V15.2137C213.177 12.0927 211.926 11.0009 209.768 11.0009C207.162 11.0009 205.555 12.6077 205.555 15.6979V23.691H201.95V0ZM219.327 17.5107V7.97768H222.932V16.5631C222.932 19.6841 223.895 20.6524 226.053 20.6524C228.211 20.6524 230.075 18.8807 230.075 15.5021V7.97768H233.68V23.691H230.075V21.7133L230.008 21.6824C229.428 22.3914 228.696 22.9615 227.866 23.3509C227.036 23.7404 226.13 23.9393 225.214 23.933C221.737 23.933 219.327 22.1923 219.327 17.5107ZM237.61 18.7004V11.0318H235.684V7.97768H237.61V2.76567L241.215 2.3794V7.97768H245.814V11.0318H241.215V18.3657C241.215 19.9777 241.694 20.5545 242.724 20.5545C243.538 20.5114 244.332 20.2805 245.042 19.8798L245.974 23.0009C244.762 23.6858 243.378 24.0093 241.988 23.933C239.284 23.933 237.61 22.2283 237.61 18.721V18.7004ZM249.43 18.7004V11.0318H247.498V7.97768H249.43V2.76567L253.035 2.3794V7.97768H257.634V11.0318H253.035V18.3657C253.035 19.9777 253.514 20.5545 254.544 20.5545C255.358 20.5107 256.151 20.2798 256.862 19.8798L257.794 23.0009C256.581 23.6858 255.198 24.0093 253.807 23.933C251.104 23.933 249.43 22.2283 249.43 18.721V18.7004ZM259.869 0H263.474V23.691H259.869V0ZM280.887 16.9957H269.438C269.886 19.2773 271.591 20.6318 274.038 20.6318C274.793 20.6511 275.544 20.4958 276.23 20.1777C276.916 19.8597 277.519 19.3877 277.993 18.7983L280.501 20.9511C279.183 22.6558 277.22 23.9124 273.842 23.9124C269.083 23.9124 265.704 20.7245 265.704 15.806C265.704 10.9803 268.985 7.73047 273.589 7.73047C277.993 7.73047 280.985 11.0421 280.985 15.6103C280.98 16.0736 280.948 16.5363 280.887 16.9957ZM269.5 14.1631H277.349C276.901 12.2678 275.614 10.9803 273.553 10.9803C272.607 10.9439 271.679 11.2467 270.936 11.834C270.193 12.4212 269.684 13.2545 269.5 14.1837V14.1631ZM21.4247 22.1459C21.9968 21.5875 22.4515 20.9203 22.7619 20.1835C23.0724 19.4467 23.2323 18.6553 23.2323 17.8558C23.2323 17.0563 23.0724 16.2649 22.7619 15.5281C22.4515 14.7913 21.9968 14.1241 21.4247 13.5657L10.568 2.93562C9.39228 1.80268 7.8231 1.16969 6.19034 1.16969C4.55758 1.16969 2.9884 1.80268 1.81266 2.93562C1.24036 3.4945 0.785584 4.16217 0.475087 4.89936C0.164591 5.63656 0.00463867 6.42841 0.00463867 7.22833C0.00463867 8.02824 0.164591 8.82009 0.475087 9.55729C0.785584 10.2945 1.24036 10.9622 1.81266 11.521L12.6642 22.1459C13.8401 23.2804 15.4104 23.9143 17.0444 23.9143C18.6784 23.9143 20.2487 23.2804 21.4247 22.1459ZM54.1131 2.94077C52.9373 1.80783 51.3682 1.17484 49.7354 1.17484C48.1026 1.17484 46.5335 1.80783 45.3577 2.94077L38.7448 9.40944L32.1371 2.94077C30.9614 1.80783 29.3922 1.17484 27.7594 1.17484C26.1267 1.17484 24.5575 1.80783 23.3818 2.94077C22.8109 3.49992 22.3573 4.16739 22.0477 4.90407C21.7381 5.64074 21.5786 6.4318 21.5786 7.2309C21.5786 8.03 21.7381 8.82106 22.0477 9.55774C22.3573 10.2944 22.8109 10.9619 23.3818 11.521L34.2384 22.1459C35.4651 23.284 37.0767 23.9164 38.75 23.9164C40.4233 23.9164 42.0349 23.284 43.2616 22.1459L54.1234 11.5107C54.692 10.9511 55.1434 10.2837 55.4513 9.5476C55.7591 8.8115 55.9171 8.02145 55.9162 7.22359C55.9152 6.42573 55.7553 5.63606 55.4457 4.90071C55.1361 4.16536 54.6831 3.49907 54.1131 2.94077Z" fill="white"/>
  </g>
  <defs>
    <clipPath id="clip0">
      <rect width="280.985" height="24" fill="white"/>
    </clipPath>
  </defs>
</svg>
